<svg xmlns="http://www.w3.org/2000/svg" width="1400" height="820" viewBox="0 0 1400 820" role="img" aria-labelledby="title desc">
  <title>Qualification model</title>
  <desc>An evidence-based qualification model with five equally weighted dimensions, explicit evidence standards, risk flags, and readiness gates for proof-of-concept decisions.</desc>
  <defs>
    <linearGradient id="bg" x1="0" x2="1" y1="0" y2="1">
      <stop stop-color="#08111d"/>
      <stop offset="1" stop-color="#0d1d2d"/>
    </linearGradient>
    <linearGradient id="panel" x1="0" x2="1" y1="0" y2="1">
      <stop stop-color="#17263a"/>
      <stop offset="1" stop-color="#101b29"/>
    </linearGradient>
    <style>
      text { font-family: Inter, ui-sans-serif, system-ui, -apple-system, BlinkMacSystemFont, "Segoe UI", sans-serif; }
      .eyebrow { fill: #64d8bd; font-size: 15px; font-weight: 850; letter-spacing: 2px; }
      .heading { fill: #eef4fa; font-size: 40px; font-weight: 760; }
      .intro { fill: #9aabba; font-size: 18px; }
      .card-title { fill: #eef4fa; font-size: 20px; font-weight: 760; }
      .body { fill: #aab8c6; font-size: 15px; }
      .small { fill: #8495a7; font-size: 13px; }
      .label { fill: #78899b; font-size: 12px; font-weight: 850; letter-spacing: 1.4px; }
    </style>
  </defs>

  <rect width="1400" height="820" rx="22" fill="url(#bg)"/>
  <circle cx="1260" cy="70" r="290" fill="#31586e" opacity=".12"/>
  <text x="74" y="79" class="eyebrow">EVIDENCE-BASED OPPORTUNITY CONTROL</text>
  <text x="74" y="134" class="heading">Qualification model</text>
  <text x="74" y="172" class="intro">Five dimensions · 20 points each · unknowns score zero until evidence exists</text>

  <g>
    <rect x="74" y="224" width="236" height="284" rx="15" fill="url(#panel)" stroke="#30445a"/>
    <circle cx="111" cy="263" r="19" fill="#102f2c" stroke="#397467"/>
    <text x="111" y="269" fill="#64d8bd" font-size="15" font-weight="900" text-anchor="middle">01</text>
    <text x="94" y="312" class="card-title">Problem</text>
    <text x="94" y="347" class="body">Pain is specific,</text>
    <text x="94" y="370" class="body">consequential, and</text>
    <text x="94" y="393" class="body">time-bound.</text>
    <line x1="94" y1="421" x2="290" y2="421" stroke="#26364a"/>
    <text x="94" y="450" class="label">STRONG EVIDENCE</text>
    <text x="94" y="477" class="small">Named impact owner</text>
    <text x="94" y="496" class="small">and urgency trigger</text>

    <rect x="328" y="224" width="236" height="284" rx="15" fill="url(#panel)" stroke="#30445a"/>
    <circle cx="365" cy="263" r="19" fill="#102f2c" stroke="#397467"/>
    <text x="365" y="269" fill="#64d8bd" font-size="15" font-weight="900" text-anchor="middle">02</text>
    <text x="348" y="312" class="card-title">Workload</text>
    <text x="348" y="347" class="body">Architecture, scale,</text>
    <text x="348" y="370" class="body">constraint, and baseline</text>
    <text x="348" y="393" class="body">are measurable.</text>
    <line x1="348" y1="421" x2="544" y2="421" stroke="#26364a"/>
    <text x="348" y="450" class="label">STRONG EVIDENCE</text>
    <text x="348" y="477" class="small">Current-state metric</text>
    <text x="348" y="496" class="small">with technical owner</text>

    <rect x="582" y="224" width="236" height="284" rx="15" fill="url(#panel)" stroke="#397467" stroke-width="2"/>
    <circle cx="619" cy="263" r="19" fill="#64d8bd"/>
    <text x="619" y="269" fill="#06251f" font-size="15" font-weight="900" text-anchor="middle">03</text>
    <text x="602" y="312" class="card-title">Value</text>
    <text x="602" y="347" class="body">Technical change links</text>
    <text x="602" y="370" class="body">to an operational or</text>
    <text x="602" y="393" class="body">economic outcome.</text>
    <line x1="602" y1="421" x2="798" y2="421" stroke="#315347"/>
    <text x="602" y="450" class="label">STRONG EVIDENCE</text>
    <text x="602" y="477" class="small">Agreed metric, baseline,</text>
    <text x="602" y="496" class="small">and decision threshold</text>

    <rect x="836" y="224" width="236" height="284" rx="15" fill="url(#panel)" stroke="#30445a"/>
    <circle cx="873" cy="263" r="19" fill="#102f2c" stroke="#397467"/>
    <text x="873" y="269" fill="#64d8bd" font-size="15" font-weight="900" text-anchor="middle">04</text>
    <text x="856" y="312" class="card-title">Buying group</text>
    <text x="856" y="347" class="body">Economic, technical,</text>
    <text x="856" y="370" class="body">champion, and commercial</text>
    <text x="856" y="393" class="body">roles are mapped.</text>
    <line x1="856" y1="421" x2="1052" y2="421" stroke="#26364a"/>
    <text x="856" y="450" class="label">STRONG EVIDENCE</text>
    <text x="856" y="477" class="small">Direct role confirmation</text>
    <text x="856" y="496" class="small">and access path</text>

    <rect x="1090" y="224" width="236" height="284" rx="15" fill="url(#panel)" stroke="#30445a"/>
    <circle cx="1127" cy="263" r="19" fill="#102f2c" stroke="#397467"/>
    <text x="1127" y="269" fill="#64d8bd" font-size="15" font-weight="900" text-anchor="middle">05</text>
    <text x="1110" y="312" class="card-title">Decision</text>
    <text x="1110" y="347" class="body">Process, criteria, owner,</text>
    <text x="1110" y="370" class="body">timeline, and alternatives</text>
    <text x="1110" y="393" class="body">are explicit.</text>
    <line x1="1110" y1="421" x2="1306" y2="421" stroke="#26364a"/>
    <text x="1110" y="450" class="label">STRONG EVIDENCE</text>
    <text x="1110" y="477" class="small">Documented gate and</text>
    <text x="1110" y="496" class="small">decision date</text>
  </g>

  <rect x="74" y="547" width="1252" height="184" rx="15" fill="#0b1622" stroke="#26364a"/>
  <text x="101" y="582" class="label">READINESS INTERPRETATION</text>
  <rect x="101" y="608" width="252" height="85" rx="10" fill="#10252b" stroke="#397467"/>
  <circle cx="126" cy="635" r="6" fill="#65d6a1"/>
  <text x="145" y="641" fill="#65d6a1" font-size="15" font-weight="800">Ready to evaluate</text>
  <text x="126" y="672" class="small">Bounded scope and decision gate</text>

  <rect x="372" y="608" width="252" height="85" rx="10" fill="#2a251b" stroke="#6d5935"/>
  <circle cx="397" cy="635" r="6" fill="#f4c56b"/>
  <text x="416" y="641" fill="#f4c56b" font-size="15" font-weight="800">Developing</text>
  <text x="397" y="672" class="small">Resolve named evidence gaps</text>

  <rect x="643" y="608" width="252" height="85" rx="10" fill="#2a1d24" stroke="#70404a"/>
  <circle cx="668" cy="635" r="6" fill="#ff8b91"/>
  <text x="687" y="641" fill="#ff8b91" font-size="15" font-weight="800">Blocked</text>
  <text x="668" y="672" class="small">Critical owner or value gap</text>

  <rect x="914" y="608" width="385" height="85" rx="10" fill="#131f2d" stroke="#30445a"/>
  <text x="940" y="639" class="label">SCORE IS NOT</text>
  <text x="940" y="671" fill="#c8d4df" font-size="15" font-weight="700">Forecast probability or activity count</text>

  <text x="74" y="781" fill="#657589" font-size="13">Scoring reflects qualification completeness only · synthetic framework · no outcome claims</text>
</svg>
